<?xml version="1.0" encoding="UTF-8" standalone="no"?>
<svg
   version="1.1"
   id="svg6352"
   viewBox="0 0 89.743676 87.606917"
   height="24.724619mm"
   width="25.32766mm"
   sodipodi:docname="japanese_apricot_blossom_modified.svg"
   inkscape:version="1.3.2 (091e20e, 2023-11-25, custom)"
   xmlns:inkscape="http://www.inkscape.org/namespaces/inkscape"
   xmlns:sodipodi="http://sodipodi.sourceforge.net/DTD/sodipodi-0.dtd"
   xmlns="http://www.w3.org/2000/svg"
   xmlns:svg="http://www.w3.org/2000/svg"
   xmlns:rdf="http://www.w3.org/1999/02/22-rdf-syntax-ns#"
   xmlns:cc="http://creativecommons.org/ns#"
   xmlns:dc="http://purl.org/dc/elements/1.1/">
  <sodipodi:namedview
     id="namedview1"
     pagecolor="#505050"
     bordercolor="#eeeeee"
     borderopacity="1"
     inkscape:showpageshadow="0"
     inkscape:pageopacity="0"
     inkscape:pagecheckerboard="0"
     inkscape:deskcolor="#505050"
     inkscape:document-units="mm"
     inkscape:zoom="5.8340784"
     inkscape:cx="76.961599"
     inkscape:cy="40.880493"
     inkscape:window-width="1920"
     inkscape:window-height="1009"
     inkscape:window-x="1672"
     inkscape:window-y="-8"
     inkscape:window-maximized="1"
     inkscape:current-layer="g6314" />
  <defs
     id="defs6354" />
  <metadata
     id="metadata6357">
    <rdf:RDF>
      <cc:Work
         rdf:about="">
        <dc:format>image/svg+xml</dc:format>
        <dc:type
           rdf:resource="http://purl.org/dc/dcmitype/StillImage" />
      </cc:Work>
    </rdf:RDF>
  </metadata>
  <g
     transform="translate(-366.55674,-659.98732)"
     id="layer1">
    <g
       id="g6314"
       style="display:inline"
       transform="translate(-496.49653,101.67999)">
      <path
         style="display:inline;opacity:1;fill:#ffffff;fill-opacity:1;stroke:none;stroke-width:4;stroke-linecap:butt;stroke-linejoin:miter;stroke-miterlimit:4;stroke-dasharray:none;stroke-opacity:1"
         d="m 907.92714,558.30733 c -12.70255,0 -22.99999,10.29744 -23,22.99999 0.0268,10.6855 7.40927,19.94517 17.82031,22.35156 -1.80364,-1.89191 -8.14345,-17.22113 -9.30909,-19.57533 0.63466,-0.86672 1.38286,-1.64314 2.22461,-2.31055 0.90726,2.07555 6.93741,17.17861 8.40285,18.89564 -0.16523,-1.14906 -0.25332,-2.3079 -0.26367,-3.46874 0.008,-13.88216 10.92006,-25.30944 24.78711,-25.95704 -3.8481,-7.90731 -11.86818,-12.92829 -20.66212,-12.93553 z m 21.54883,15.89451 c -2.30391,0.0326 -4.58985,0.41114 -6.78125,1.12305 -10.13806,3.32165 -16.66121,13.17875 -15.75586,23.80861 0.55542,-1.03711 1.17691,-2.03769 1.86915,-2.99219 0.85215,-1.15502 15.29753,-9.79012 16.32837,-10.78895 1.03462,0.33092 2.01934,0.8008 2.92772,1.3965 -1.70351,1.51236 -16.66577,10.82072 -17.84983,12.75767 3.50304,-1.69351 7.34151,-2.5792 11.23241,-2.59177 10.81515,0.005 20.49763,6.70495 24.31446,16.8242 6.33001,-6.10326 8.62627,-15.28149 5.91601,-23.64649 -3.11626,-9.59136 -12.11729,-16.03391 -22.20118,-15.89063 z m -46.59375,0.2344 c -8.71607,1.21113 -15.97712,7.2893 -18.7031,15.65624 -3.92572,12.08125 2.68607,25.05739 14.76755,28.98242 10.13772,3.26626 21.19182,-0.85508 26.71681,-9.96092 -2.33336,1.11243 -18.97764,1.50613 -21.54784,1.88517 -0.63289,-0.87179 -1.14685,-1.82537 -1.52538,-2.83398 2.29587,-0.22565 18.69766,-0.4222 20.81735,-1.31293 -12.40178,-2.18907 -21.45176,-12.95145 -21.48047,-25.54491 0.01,-2.32274 0.33123,-4.63367 0.95508,-6.87109 z m 37.91405,25.48828 c -2.83455,0.0957 -5.62696,0.71482 -8.23633,1.82615 2.57155,0.46657 16.15427,7.73948 18.48243,8.9551 0.006,1.07843 -0.13461,2.15229 -0.41602,3.19337 -2.00298,-1.1675 -15.256,-8.44811 -17.5078,-8.96681 4.65914,4.82897 7.27089,11.27227 7.28906,17.98243 -10e-4,7.89399 -3.58923,15.35981 -9.75195,20.29296 7.7598,4.12996 17.19496,3.47578 24.31056,-1.68554 10.27676,-7.46654 12.5547,-21.85042 5.08788,-32.12697 -4.46278,-6.14178 -11.66891,-9.68564 -19.25783,-9.47069 z m -8.97264,8.04686 c 0.33937,2.56496 -6.92743,20.93642 -7.36011,23.50047 -1.02758,0.33913 -2.095,0.53888 -3.17579,0.59179 0.50075,-2.27615 7.87884,-20.37559 7.67848,-22.68991 -4.49724,8.48704 -13.30719,13.80335 -22.91211,13.82617 -5.07615,-0.007 -10.03934,-1.49893 -14.27734,-4.29297 -1.53665,8.66086 2.00095,17.43966 9.11327,22.61524 10.27621,7.46548 24.65859,5.18763 32.12501,-5.08789 6.2335,-8.62133 5.74078,-20.39266 -1.19141,-28.4629 z"
         id="path5065-4-7-01-8-6-1"
         sodipodi:nodetypes="cccccccccccccccccccccccccccccccccccccccccccccccc" />
    </g>
  </g>
</svg>
