<?xml version="1.0" encoding="UTF-8" standalone="no"?>
<svg
   xmlns:dc="http://purl.org/dc/elements/1.1/"
   xmlns:cc="http://creativecommons.org/ns#"
   xmlns:rdf="http://www.w3.org/1999/02/22-rdf-syntax-ns#"
   xmlns:svg="http://www.w3.org/2000/svg"
   xmlns="http://www.w3.org/2000/svg"
   xmlns:sodipodi="http://sodipodi.sourceforge.net/DTD/sodipodi-0.dtd"
   xmlns:inkscape="http://www.inkscape.org/namespaces/inkscape"
   id="Capa_1"
   style="enable-background:new 0 0 512 512;"
   version="1.1"
   viewBox="0 0 512 512"
   xml:space="preserve"
   sodipodi:docname="error.svg"
   inkscape:version="1.0.2-2 (e86c870879, 2021-01-15)"><metadata
     id="metadata15"><rdf:RDF><cc:Work
         rdf:about=""><dc:format>image/svg+xml</dc:format><dc:type
           rdf:resource="http://purl.org/dc/dcmitype/StillImage" /><dc:title></dc:title></cc:Work></rdf:RDF></metadata><defs
     id="defs13" /><sodipodi:namedview
     pagecolor="#ffffff"
     bordercolor="#666666"
     borderopacity="1"
     objecttolerance="10"
     gridtolerance="10"
     guidetolerance="10"
     inkscape:pageopacity="0"
     inkscape:pageshadow="2"
     inkscape:window-width="1680"
     inkscape:window-height="987"
     id="namedview11"
     showgrid="false"
     inkscape:zoom="1.0695766"
     inkscape:cx="276.86707"
     inkscape:cy="318.18795"
     inkscape:window-x="-8"
     inkscape:window-y="-8"
     inkscape:window-maximized="1"
     inkscape:current-layer="Capa_1"
     inkscape:document-rotation="0" /><style
     type="text/css"
     id="style2">
	.st0{fill:#232323;}
</style><g
     id="g8"
     style="fill:#e6e6e6"><path
       class="st0"
       d="M359.6,144.9c-4.3-4.3-11.2-4.3-15.4,0l-91.4,91.4l-91.4-91.4c-4.3-4.3-11.2-4.3-15.4,0   c-4.3,4.3-4.3,11.2,0,15.4l91.4,91.4l-91.4,91.4c-4.3,4.3-4.3,11.2,0,15.4c2.1,2.1,4.9,3.2,7.7,3.2c2.8,0,5.6-1.1,7.7-3.2   l91.4-91.4l91.4,91.4c2.1,2.1,4.9,3.2,7.7,3.2s5.6-1.1,7.7-3.2c4.3-4.3,4.3-11.2,0-15.4l-91.4-91.4l91.4-91.4   C363.9,156.1,363.9,149.2,359.6,144.9z"
       id="path4"
       style="fill:#e6e6e6" /><path
       class="st0"
       d="M260,1C121,1,8,114.1,8,253c0,54.2,17,105.7,49,149.2c-1.6,12.1-4.8,23.6-9.7,34.2   c-7.4,15.7-16.7,25.8-23.5,33.1c-7.5,8.1-15.3,16.5-11.1,27.4c4.3,10.9,19.2,14.8,38.3,14.8c18.6,0,41.1-3.7,61.3-8.1   c17.7-3.9,35.1-9.2,51.8-16c0.6-0.2,1.1-0.5,1.6-0.9c30,12.1,61.7,18.3,94.3,18.3c63.5,0,124.2-23.7,170.8-66.7   c4.4-4.1,4.7-11,0.6-15.4c-4.1-4.4-11-4.7-15.4-0.6c-42.6,39.3-98,60.9-156,60.9c-31.6,0-62.3-6.3-91.1-18.7   c-4.4-1.9-9.3-0.7-12.3,2.6c-0.3,0.1-0.5,0.1-0.8,0.2c-15.6,6.3-31.8,11.3-48.3,14.9c-32.3,7.1-60.9,8.8-71.8,6.5   c1.2-1.4,2.7-3,4-4.4c7.3-7.9,18.4-19.8,27.2-38.7c6.6-14,10.7-29.2,12.2-45.3c0.3-3.3-0.9-6.4-3.1-8.6c-0.2-0.3-0.4-0.7-0.6-1   c-29.9-40-45.8-87.6-45.8-137.8C29.8,126.1,133.1,22.8,260,22.8S490.2,126.1,490.2,253c0,43-11.9,84.9-34.5,121.3   c-3.2,5.1-1.6,11.9,3.5,15c5.1,3.2,11.9,1.6,15-3.5C498.9,346,512,300.1,512,253C512,114.1,399,1,260,1z"
       id="path6"
       style="fill:#e6e6e6" /></g></svg>
