<?xml version="1.0" encoding="UTF-8" standalone="no"?>
<svg
   xmlns:dc="http://purl.org/dc/elements/1.1/"
   xmlns:cc="http://creativecommons.org/ns#"
   xmlns:rdf="http://www.w3.org/1999/02/22-rdf-syntax-ns#"
   xmlns:svg="http://www.w3.org/2000/svg"
   xmlns="http://www.w3.org/2000/svg"
   xmlns:sodipodi="http://sodipodi.sourceforge.net/DTD/sodipodi-0.dtd"
   xmlns:inkscape="http://www.inkscape.org/namespaces/inkscape"
   height="25"
   version="1.1"
   viewBox="0 0 25 25"
   width="25"
   id="svg11"
   sodipodi:docname="info.svg"
   inkscape:version="1.0.2-2 (e86c870879, 2021-01-15)">
  <metadata
     id="metadata15">
    <rdf:RDF>
      <cc:Work
         rdf:about="">
        <dc:format>image/svg+xml</dc:format>
        <dc:type
           rdf:resource="http://purl.org/dc/dcmitype/StillImage" />
        <dc:title></dc:title>
      </cc:Work>
    </rdf:RDF>
  </metadata>
  <sodipodi:namedview
     pagecolor="#ffffff"
     bordercolor="#666666"
     borderopacity="1"
     objecttolerance="10"
     gridtolerance="10"
     guidetolerance="10"
     inkscape:pageopacity="0"
     inkscape:pageshadow="2"
     inkscape:window-width="1680"
     inkscape:window-height="987"
     id="namedview13"
     showgrid="false"
     inkscape:zoom="7.9943862"
     inkscape:cx="12"
     inkscape:cy="12"
     inkscape:window-x="-8"
     inkscape:window-y="-8"
     inkscape:window-maximized="1"
     inkscape:current-layer="svg11"
     inkscape:document-rotation="0"
     fit-margin-top="0"
     fit-margin-left="0"
     fit-margin-right="0"
     fit-margin-bottom="0" />
  <desc
     id="desc4" />
  <defs
     id="defs6" />
  <g
     fill="none"
     fill-rule="evenodd"
     id="Page-1"
     stroke="none"
     stroke-width="1"
     style="fill:#e6e6e6"
     transform="translate(-4,-4)">
    <g
       fill="#929292"
       id="icon-29-information"
       style="fill:#e6e6e6">
      <path
         d="M 17,22 V 15.75 15 h -3 v 1 h 2 v 6 h -2 v 1 h 5 v -1 h -2 z m -0.5,7 C 23.40356,29 29,23.40356 29,16.5 29,9.5964403 23.40356,4 16.5,4 9.5964403,4 4,9.5964403 4,16.5 4,23.40356 9.5964403,29 16.5,29 Z m 0,-1 C 22.851275,28 28,22.851275 28,16.5 28,10.148725 22.851275,5 16.5,5 10.148725,5 5,10.148725 5,16.5 5,22.851275 10.148725,28 16.5,28 Z m 0,-15 C 17.328427,13 18,12.328427 18,11.5 18,10.671573 17.328427,10 16.5,10 15.671573,10 15,10.671573 15,11.5 c 0,0.828427 0.671573,1.5 1.5,1.5 z"
         id="information"
         style="fill:#e6e6e6" />
    </g>
  </g>
</svg>
